<svg id="Layer_1" xmlns="http://www.w3.org/2000/svg" viewBox="0 0 287.9 58.1"><style>.st0{fill:#f99d1c}.st1{fill:none}.st2{font-family:&apos;Knockout-72FullCruiserwt&apos;}.st3{font-size:16.6263px}</style><path class="st0" d="M287.8 40c-1.1-2.5-2.9-5.3-3.9-7.9-5-10.2-8.9-19.4-13.8-29.3-.3-.4-.4-1.1-1.1-1.3-1.5-.1-3.2 0-5.1 0-2.4.1-5-.1-7.5 0-2.6.2-5.1.2-7.2.3l-.4.3c-4.3 8.3-6.8 14.9-10.7 23.4-2.4 3.9-4.1 8.9-6.4 12.9-.3 1-1.8 1.8-1.1 3 1.9.1 3.7.2 5.4 0 3.5.2 6.8 0 10.1 0 1.3-.3 3 .5 3.8-.9.5-1.1.8-2.2 1.4-3.3.3-1 1.4-.8 2.3-.9 1.7.2 3.3-.4 5.1-.1h.3c2.4-.2 4.8 0 7.1-.1.9.1.7 1.6 1.2 2.1.3 1 .8 2.1 1.3 2.9 1.1.4 2.4 0 3.6.3 4.8-.3 8 .1 12.7 0 .8-.1 1.9 0 2.6-.1.4-.1.4-.8.3-1.3zm-31.5-12.1c-.3 0-1.2.1-1.6.1h-.2c-.1 0-.1-.1-.2-.2 0 0-.1-.2 0-.2 0-.1.1-.2.1-.2.3-.5.5-.9.8-1.5l.4-.8c.1-.2.4-.9.5-1.1l.1-.4c0-.1.6-2.2.6-2.2.1-.1.2-.3.2-.5l.6-1.5c0-.1.3-.6.3-.7.2-.5.3-1.2.4-1.4.1-.2.1-.2.3-.2h1s.3 0 .3.4c0 0 .2.8.4 1.3l.5 1.6.1.3.6 1.3c0 .2.4 1.3.4 1.4l.4 1 .1.3.6 1.5c.2.4.7 1.2.9 1.5v.2c-.1.1-.1.2-.2.2h-.3l-1.2-.1c.1 0-5.4-.1-5.9-.1zm-81.9-13.1c-1.3-3.2-2.9-6.5-5.5-8.8-1.4-1.1-2.9-2.3-4.6-2.9-1.5-.8-3.3-1.2-4.9-1.6-1-.1-2.1-.5-3.1-.3-1.2 0-2.5-.3-3.5-.1l-7.7.1c-.6-.2-1.2.3-1.8-.1-1.9.2-4 .2-5.9.4-3.5.5-7 1.2-9.9 3.6-.4.3-1 .5-1.2 1-3 2.9-5.2 6.5-6 10.6-.3 2.3-.7 4.4-.4 6.7-.2 1.4.4 2.7.6 4.1.3.8.3 1.8.7 2.5.9 3 3 5.7 5.5 7.7.8.8 1.7 1.3 2.6 1.7 1.2.9 2.5 1.3 3.8 1.8 1.2.2 2.5.3 3.7.6 1 .1 2.1.1 3.1.2 4.1-.1 9.6.1 13.7-.1 2.3.1 5.5-.1 7.7-.6 1.5-.1 2.6-.8 4-1.2.4-.5 1-.5 1.4-.9 1-.7 2.2-1.3 3.1-2.3.9-.1.8-1.3 1.6-1.6.7-1.3 2.1-2.5 2.4-4.1.8-1.4 1.2-3.1 1.4-4.7.3-3.9.2-8.1-.8-11.7zm-17.5 11.4c-.4.6-2.2 1.8-2.8 1.9-.7.4-1.5.5-2.1.8-.8-.1-2.6.2-3.4.2-2.4-.4-6.2-.1-8-1.9-3-2.2-3.7-6.1-2-9.4.8-2.1 3.2-3.5 5.6-3.6.5.3 1-.1 1.5-.1 1 .3 4.4-.2 5.4.1 1.2.2 2.9.4 3.9 1.2 1.4.6 2.3 1.9 2.9 3.2.6 2.1.6 5.2-1 7.6zM109.8 6.6c-1.6-1.7-3.6-2.3-5.5-3.4-3.8-1.5-7.4-1.6-11.6-1.7-5.5.1-5.7.1-11.2.1-1.4.1-2.7.1-4.1 0-1.5.3-2.9 0-4.4.1-2.4-.2-4.4.3-7-.1-.3.3-.7.1-1 .1s-.4.3-.5.6c-.2 4.8-.1 10.2-.1 14.8-.1 7.1.1 14.6-.2 21.9.4.6-.2 1.7.4 2.1 2.6.4 5.4.1 8.1.2 1.2-.1 2.8-.3 3.9-.2 1.3-.3 2.5.1 3.8 0 5.7 0 6.7.1 12.4 0 1.3.2 2.7-.3 3.9-.2 2.7-.1 5.3-.5 7.7-1.3.5-.4 1.2-.5 1.7-.9 1.3-.6 2.3-1.6 3.5-2.4 1.3-1.3 2.5-2.7 3.4-4.4 2.6-4 2.6-8.9 2.5-13.9-.3-4.3-2.3-8.6-5.7-11.4zm-13 19.2c-.4.7-1.2 1.3-1.7 1.7-1.1.8-2.3 1.3-3.7 1.5-1.3.1-1.1.2-2.5.1-1.3.2-.1 0-1.4-.2-1.3.2-3.3-.1-4.7 0-.6-.1-.6-.7-.8-1.1.3-2.6-.2-6.5.1-9 0-1.7-.5-3.2 0-4.8l.2-.1c2.6-.2 3.4-.1 6 .1 2.3 0 3-.2 5.1.7 1.5.4 2.4 1.6 3.1 3 .3.6.6 1.1.8 1.8.3.9.3 2 .2 3.1.1 1.2 0 2.2-.7 3.2zM52.1 5.4c-1.6-1.2-3.2-2.4-5.1-3-1.7-.8-3.5-1.5-5.4-1.9-1.2-.1-2.4-.6-3.5-.3-1.4 0-2.8-.3-4-.1l-5.5.1c-.7-.2-1.4.3-2-.1-2.2.2-4.6.2-6.7.4-4 .6-8 1.2-11.2 3.8-.5.3-1.2.5-1.4 1.1C3.9 8.5 1.4 12.3.5 16.7c-.3 2.4-.8 4.7-.4 7.1-.2 1.5.5 2.9.6 4.4.3.8.3 1.9.8 2.7 1 3.2 3.4 6 6.3 8.2.9.8 1.9 1.4 3 1.8 1.3 1 2.9 1.4 4.3 1.9 1.3.2 2.9.3 4.2.6 1.2.1 2.4.1 3.5.2 1.2 0 3 .1 4.2.1 1.1.1 1.3.5 1.6.9.2.4.5.7.8 1.1.8 1 1.6 2 2.6 2.9.9 1 2 1.9 3 2.8.5.4 1.1.9 1.7 1.3s1.4.9 2 1.3c1.2.8 1.9.9 3.1 1.6.6.3 1.3.6 1.9.9.3.1.6.3.9.4s.6.2 1 .3c.6.2 1.3.4 1.9.6.4.1.9.2 1.3.3.2 0 .9 0 1.4-.8l.1-.1c.1-.2.3-.5.4-.7 1.5-2.9 2.8-5.2 4.2-8.2l.3-.6s.6-.9-.5-1.5c-.5-.2-1.1-.3-1.7-.6-.3-.2-.8-.3-1.1-.5-.3-.2-1-.5-1.1-.7-.3-.2-1-.4-1.4-.7-.5-.4-.9-.5-1.4-.9l-.8-.6s-.7-.5-.2-.9l.7-.2c.7-.3 1.8-.6 2.5-.9 1.5-.8 3-1.5 4.2-2.7.3-.3.5-.6.8-.9.8-1.4 2.4-2.6 2.7-4.4.9-1.5 1.3-3.3 1.6-5 .3-4 .1-8.6-1-12.4-1.3-3.5-3.5-6.9-6.4-9.4zM38.2 28c-.5.6-1.2.8-1.9 1-.8.5-1.9.1-2.6.7-1-.1-1.9.3-2.8.3-.8-.1-1.5-.1-2.3-.1-2.2-.1-4.4-.2-6-1.5-3.7-2.2-4.1-6-3.1-9.5.3-.7.9-1.9 1.6-2.5 1.3-1.2 3.4-1.7 5.3-1.8.6.3 1.2-.1 1.8-.2 1.2.3 2.8-.1 4 .1 1.5.2 3.3.2 4.4 1 1.7.6 2.7 2.2 3.5 3.5.6 2.8.6 6.1-1.9 9zm188.6-3.9c-.6-.6-2.5-1.8-4.6-2.2-.1 0-.2-.1-.2-.3v-.4c0-.1 0-.2.1-.2 5-2.2 6.9-6.4 6-10.8-.5-1.9-1.5-3.9-2.9-5.4-.3-.3-.6-.5-.9-.7-1.9-1.3-3.6-2.1-5.8-2.2-2.3.1-2.1-.4-4.3-.1-2.6-.1-5.1-.1-7.8-.1-4.1-.1-7.4-.1-10.7-.1-2.4 0-4.7.2-7.3.2-2.3 0-5.3-.1-7.9-.1-.4.3-.7.5-.7 1-.2 5.5.4 10.7.3 16.4.2.6 0 1.2-.1 1.8 0 5.9.5 11.7.3 17.7.1.8-.3 1.8.2 2.5 1.8.3 3.3.2 5.2.3 6.3-.1 10.6.1 17 .1 1.1.1.8-.2 1.8 0 2.1.1 3-.1 5 .1 1.4-.3 3.1-.1 4.5-.2 0 0 1.9 0 2.5-.2 3.2 0 6.1-.3 8.6-1.9.9-.6 2-1.6 2.5-2.4.6-1 1.1-2 1.6-3.1.6-2.3.5-4.6-.4-6.7-.6-1.2-1.2-2.2-2-3zm-28.7-12.3c2.1 0 3.8 0 5.7-.1 2.2.3 2.6.2 5.1.5 1 .1 1.9 1.3 1.9 2.6.1.7 0 1.4-.4 1.9-2.1 1.5-4.8.5-7.1.9-2.8-.2-2.4 0-5.2-.1-.3-.5-.3-1.2-.4-1.9 0-1-.3-3.1.4-3.8zm13.3 17.8c-.6 1.1-1.8.9-2.7 1.1-3.1.4-2.2-.2-5.4 0-1.1-.2-2.6.2-3.8-.1-.6-.1-1.6.3-1.8-.4-.3-1.4.1-3.2 0-4.7 1.2-.6 3.2-.2 4.5-.4 2.1.1.4.2 2.6.1 1.1 0 2.2.1 3.4.2 1.7.1 2.3.2 3.1 1.5.5 1 .3 2.2.1 2.7z"/><path class="st1" d="M272.1 2.1h22.5v16.5h-22.5z"/><text transform="translate(272.167 13.159)" class="st0 st2 st3">®</text></svg>